<svg width="410" height="678" viewBox="0 0 410 678" fill="none" xmlns="http://www.w3.org/2000/svg">
<path fill-rule="evenodd" clip-rule="evenodd" d="M197 2.5H263C267.142 2.5 270.5 5.85785 270.5 10C270.5 14.1422 267.142 17.5 263 17.5H197C192.858 17.5 189.5 14.1422 189.5 10C189.5 5.85785 192.858 2.5 197 2.5ZM187.053 8.96356C187.572 3.9277 191.827 0 197 0H263C268.523 0 273 4.47714 273 10C273 15.5229 268.523 20 263 20H197C191.632 20 187.251 15.77 187.01 10.4612L186.61 11.9485C183.573 11.1307 181.467 11.2928 180.007 11.8357C178.558 12.3743 177.583 13.3475 176.909 14.4637C176.223 15.5982 175.863 16.859 175.679 17.8699C175.63 18.1397 175.594 18.387 175.568 18.6035C175.702 18.9199 175.827 19.2376 175.943 19.5561C178.325 26.0921 178.002 32.6802 177.677 39.3173C177.473 43.4946 177.267 47.6914 177.734 51.9068C179.074 63.9938 186.515 71.6564 194.648 78.9477C194.081 76.1168 194.326 73.0004 195.216 70.0298C195.177 68.7489 195.315 67.4596 195.453 66.1655C195.617 64.6239 195.782 63.0755 195.651 61.5268C195.399 58.5486 193.498 53.6086 189.313 55.1345C185.869 56.3958 186.032 58.2464 189.797 60.6849C190.932 60.0054 191.977 59.2146 192.935 58.3111C193.017 58.2374 193.122 58.3111 193.107 58.4118C192.616 61.8741 188.365 64.3952 185.53 61.5568C182.793 58.8207 184.289 54.2596 187.668 52.9095C191.901 51.2167 196.932 53.4267 198.213 57.9518C198.603 59.3214 198.768 60.727 198.771 62.1416C202.386 54.4595 213.294 49.9479 221.059 51.4001C226.984 52.5066 233.373 55.578 236.886 60.718C237.568 61.7149 238.296 63.0986 239.094 64.6161C241.98 70.1033 245.787 77.3396 251.637 74.3624C252.076 73.8949 252.507 73.4123 252.921 72.8936C253.388 72.3088 254.489 72.9402 254.201 73.6393C250.387 82.8128 239.83 85.3414 230.73 83.6622C225.08 82.6188 218.046 80.893 213.212 77.5796C211.684 76.5324 210.298 74.9888 208.919 73.4531C206.111 70.3261 203.333 67.2319 199.444 68.4287C197.059 73.4785 198.76 79.2874 201.432 84.9957C205.585 88.7856 209.527 92.7755 212.532 97.5036C215.989 101.015 218.29 106.208 220.208 110.538C220.383 110.931 220.554 111.318 220.723 111.695C223.394 117.677 224.967 124.257 225.653 130.765C226.49 138.697 226.472 146.602 225.572 154.532C225.49 155.251 225.41 155.975 225.33 156.702C224.687 162.526 224.022 168.553 222.222 174.125C222.29 177.785 221.858 181.555 221.432 185.268C221.16 187.646 220.89 190.001 220.756 192.29C220.275 200.483 219.992 208.717 220.093 216.926C220.197 225.387 220.655 234.022 223.538 242.065C224.989 246.109 227.247 249.61 229.51 253.117C230.773 255.075 232.037 257.034 233.163 259.092C234.621 261.029 236.112 262.944 237.601 264.858C238.322 265.783 239.042 266.708 239.758 267.635C244.785 274.142 249.582 280.814 254.375 287.493L254.581 287.779C259.857 295.129 265.144 302.492 269.975 310.147C270.434 310.874 270.902 311.608 271.374 312.349C275.167 318.3 279.239 324.688 281.132 331.447C281.406 332.063 281.664 332.687 281.907 333.319C281.944 333.198 281.983 333.074 282.022 332.95C282.986 329.875 284.415 325.792 286.264 321.806C288.103 317.844 290.409 313.862 293.169 311.077C295.873 308.348 299.244 306.562 303.115 307.482C303.846 302.679 307.993 299 313 299H400C405.523 299 410 303.477 410 309C410 314.523 405.523 319 400 319H313C307.477 319 303 314.523 303 309L302.61 310.448C300.096 309.772 297.688 310.779 295.3 313.189C292.903 315.607 290.772 319.219 288.986 323.069C287.21 326.895 285.826 330.844 284.884 333.847C284.414 335.346 284.056 336.603 283.816 337.484C283.696 337.924 283.606 338.269 283.546 338.503C283.545 338.509 283.543 338.514 283.542 338.52C285.681 346.996 285.743 356.283 285.624 364.518C285.582 367.526 285.458 370.546 285.225 373.554C290.343 365.236 298.578 357.537 307.365 353.979C313.21 348.367 323.961 346.434 331.148 348.847C336.579 350.669 340.367 353.648 343.485 358.437C343.942 359.139 344.526 360.195 345.213 361.439C348.244 366.923 353.295 376.062 358.443 374.692C358.96 374.037 359.469 373.355 359.996 372.649C360.188 372.391 360.383 372.13 360.582 371.866C360.965 371.359 361.967 371.441 361.911 372.227C361.904 372.34 361.89 372.449 361.877 372.557C361.87 372.616 361.862 372.676 361.856 372.736C361.981 372.843 362.062 373.013 362.029 373.189C361.922 373.751 361.728 374.298 361.465 374.814C358.696 384.73 344.472 385.133 336.076 382.636C330.357 380.934 324.639 378.2 320.381 373.909C318.2 371.713 316.304 369.39 314.648 366.774C312.125 362.789 309.709 359.011 305.323 359.116C302.937 360.379 300.647 362.007 298.466 363.996C294.606 367.52 291.839 371.635 289.061 375.767C288.909 375.993 288.757 376.219 288.605 376.445C294.37 374.147 302.112 374.671 306.438 377.804C311.475 381.454 313.542 385.946 314.904 391.919L314.916 391.972C315.915 396.35 317.113 401.594 321.75 403.56C325.109 404.985 329.532 405.031 332.131 401.901C333.67 400.188 334.441 398.212 334.444 395.972C331.673 395.814 328.901 395.655 326.13 395.496C326.077 396.231 325.049 396.413 324.83 395.673C322.681 388.443 331.239 385.247 335.852 390.32C340.801 395.763 335.928 405.873 329.535 407.465C320.279 409.772 313.687 403.209 311.724 394.609C310.23 388.062 307.978 380.6 300.415 378.851C296.539 377.955 291.062 377.622 287.643 380.05C286.091 381.152 284.934 382.439 283.878 383.836C282.516 390.901 280.169 397.713 276.186 403.906C277.658 410.764 277.538 417.872 273.523 423.882C268.966 430.707 262.157 435.123 253.941 435.739C251.969 449.75 245.199 463.485 237.716 475.135C242.434 482.235 245.941 490.227 246.548 498.54C246.688 500.454 246.713 502.284 246.518 504.031C249.405 502.502 252.586 501.488 255.86 501.013C263.027 495.018 276.987 496.411 284.15 500.988C292.899 506.576 300.36 514.025 303.359 524.13C304.2 524.381 304.509 525.545 303.687 526.164C303.475 526.763 302.832 527.089 302.22 527.029C294.128 531.101 281.968 527.056 274.336 523.957C270.195 522.277 266.566 519.312 263.711 515.907C262.911 514.954 262.054 513.686 261.138 512.331C259.158 509.402 256.9 506.062 254.339 504.594C251.453 505.2 248.548 506.267 245.669 507.766C245.041 509.477 244.066 511.09 242.601 512.6C241.015 514.236 238.681 515.29 236.584 516.238C236.336 516.35 236.092 516.46 235.852 516.57C234.817 517.045 233.585 517.336 232.353 517.628C231.124 517.918 229.896 518.208 228.865 518.681C228.754 518.815 228.626 518.942 228.467 519.055C228.426 519.084 228.387 519.112 228.347 519.141C228.332 519.151 228.311 519.151 228.296 519.162C228.337 519.838 228.377 520.515 228.416 521.193C228.609 524.531 228.804 527.901 229.301 531.31C230.967 542.719 235.891 551.735 242.718 560.706C245.674 561.056 248.629 561.418 251.577 561.818C252.402 561.93 253.24 562.04 254.089 562.152C265.925 563.715 279.763 565.542 288.285 574.446C293.538 579.935 297.273 586.957 298.905 594.42C303.748 589.568 310.11 585.679 316.89 584.03C324.698 577.487 336.196 576.267 345.329 581.067C350.326 583.693 354.688 587.374 357.611 592.267C358.353 593.509 358.948 594.888 359.542 596.264C360.216 597.825 360.888 599.382 361.772 600.734C363.051 602.689 364.652 604.109 366.292 605.565C367.057 606.243 367.83 606.929 368.583 607.681C369.138 608.234 369.102 609.395 368.316 609.751C368.241 609.783 368.169 609.821 368.096 609.859C368.037 609.889 367.978 609.919 367.917 609.946C358.443 618.364 345.862 614.142 335.972 608.404C329.345 604.56 317.906 597.867 316.25 589.266C316.032 588.902 315.831 588.521 315.64 588.11C309.448 589.902 303.694 593.625 299.577 598.455C299.808 600.483 299.877 602.53 299.781 604.573C308.842 611.03 316.633 620.592 322.155 629.038C326.707 636.001 330.396 643.577 332.837 651.547L332.972 651.987C334.803 657.952 337.068 665.335 336.302 671.689C337.408 672.077 338.597 672.396 339.903 672.626C348.181 674.086 358.045 673.893 366.147 671.907C367.262 671.635 367.734 673.359 366.619 673.623C366.036 673.76 365.447 673.9 364.853 674.041C354.281 676.555 342.22 679.422 331.862 674.621C327.423 672.564 324.289 669.612 322.145 665.195C320.387 661.575 317.254 656.29 312.429 659.775C309.631 661.797 308.077 664.635 306.487 667.597C305.718 669.031 303.81 669.09 302.695 668.086C297.663 663.561 290.438 661.193 283.721 662.881C281.268 663.497 279.353 664.912 277.44 666.325C275.414 667.821 273.391 669.316 270.734 669.857C269.221 670.165 268.004 669.665 266.756 669.153C266.016 668.849 265.265 668.541 264.435 668.394C260.95 667.777 258.072 669.246 255.168 670.728C254.222 671.211 253.274 671.695 252.302 672.109C247.179 674.29 241.695 676.19 236.085 676.541C233.298 676.714 230.928 676.548 228.24 675.768C227.116 675.442 226.076 674.798 225.035 674.153C223.744 673.354 222.451 672.553 220.995 672.357C218.337 671.997 215.729 672.829 213.128 673.659C210.097 674.626 207.077 675.589 204.004 674.657C202.289 674.136 200.831 673.337 199.331 672.513C198.691 672.162 198.043 671.807 197.364 671.467C193.092 669.328 189.527 670.015 185.369 671.949C184.912 672.162 184.457 672.377 184.003 672.592C180.421 674.288 176.899 675.956 172.822 675.864C172.691 675.863 159 665.04 172.75 675.595C175.006 674.639 177.135 673.386 179.262 672.133C181.833 670.62 184.402 669.107 187.19 668.123C192.215 666.348 195.875 667.185 200.554 669.473C202.544 670.446 204.418 670.759 206.24 670.729C206.567 669.049 207.121 667.424 207.677 665.794C208.269 664.056 208.864 662.311 209.188 660.485C210.2 654.793 210.012 648.996 208.29 643.443C205.142 633.288 198.936 624.714 191.232 617.484C189.097 615.482 186.783 613.595 184.459 611.701C180.119 608.164 175.745 604.6 172.442 600.196C168.918 595.499 163.838 588.304 164.528 582.05C164.433 581.727 164.355 581.402 164.31 581.074C160.714 579.285 157.572 576.87 155.21 573.58C151.348 573.505 147.404 573.601 143.497 574.006C140.353 575.936 138.715 578.683 136.979 581.596C136.459 582.468 135.93 583.355 135.35 584.239C133.892 586.459 131.955 588.45 130.098 590.36C129.95 590.513 129.802 590.665 129.655 590.816C125.437 595.162 120.965 599.528 115.312 601.962C110.166 604.178 104.842 605.608 99.269 606.272C98.5806 606.355 97.8638 606.454 97.1281 606.556C92.6235 607.181 87.4096 607.905 83.6703 605.391C82.635 604.695 82.8394 603.243 84.0054 602.831C89.6166 600.851 91.5107 595.826 93.4057 590.798C94.1728 588.763 94.9401 586.727 95.9542 584.893C98.6454 580.022 102.569 576.174 107.314 573.275C112.193 570.292 117.769 567.386 123.607 567.083C126.184 566.949 128.997 566.907 131.488 567.747C132.541 568.103 133.567 568.587 134.595 569.072C136.509 569.975 138.431 570.881 140.546 570.973C140.699 570.979 140.84 571.01 140.968 571.059C141.208 571.019 141.449 570.985 141.683 570.951C142.102 570.891 142.502 570.833 142.849 570.752C142.903 570.74 142.97 570.723 143.046 570.704C143.741 570.531 145.273 570.15 146.026 570.56C146.846 570.365 147.68 570.219 148.543 570.186C149.009 570.167 149.52 570.113 150.052 570.057C151.006 569.956 152.026 569.849 152.968 569.924C148.226 560.999 145.054 548.313 155.01 541.736C155.057 541.705 155.108 541.696 155.156 541.674C153.26 536.612 154.448 529.58 155.323 524.4C155.376 524.086 155.427 523.78 155.477 523.481C156.442 517.696 157.841 512.001 159.578 506.407C158.74 503.66 158.139 500.82 157.537 497.978C156.914 495.039 156.291 492.097 155.405 489.253C153.587 483.413 151.506 477.701 149.052 472.096C146.588 466.468 143.981 461.579 140.737 457.177C140.723 457.169 140.709 457.163 140.696 457.157C140.682 457.151 140.669 457.145 140.656 457.138C139.096 462.23 133.969 467.129 130.134 470.295C124.985 474.547 119.385 477.974 113.318 480.763C105.41 484.397 88.9174 484.53 84.2548 475.566C84.1677 475.396 84.1661 475.232 84.2142 475.089C83.8942 474.62 83.6042 474.1 83.3743 473.479C83.3262 473.347 83.508 473.26 83.5997 473.349C90.7801 480.242 94.6245 470.684 97.3635 463.874C98.1576 461.899 98.8588 460.156 99.5214 459.112C102.166 454.941 105.897 451.669 110.536 449.842C117.141 447.238 125.401 445.852 132.217 448.047C132.118 447.961 132.013 447.879 131.912 447.793C130.868 447.493 129.739 447.194 128.561 446.883C121.603 445.045 112.947 442.757 110.106 436.957C106.272 433.114 101.237 431.21 96.7613 430.293C94.0861 429.745 91.6609 429.56 89.9051 429.513C89.0286 429.49 88.3229 429.501 87.841 429.517C87.6002 429.526 87.4156 429.535 87.2939 429.542C87.233 429.546 87.1879 429.549 87.1594 429.551L87.1292 429.554L87.1236 429.554C87.124 429.554 87.1245 429.554 86.9999 428.059L86.9998 428.058C86.9683 433.554 82.5033 438 77 438H10C4.47714 438 0 433.523 0 428C0 422.477 4.47714 418 10 418H77C82.0347 418 86.2004 421.721 86.8974 426.562L86.9442 426.559L87.0239 426.554L87.1143 426.548C87.2604 426.539 87.4709 426.528 87.7388 426.519C88.2745 426.501 89.0415 426.489 89.9853 426.515C91.8701 426.565 94.4762 426.763 97.3635 427.354C101.09 428.118 105.37 429.557 109.163 432.25C109.212 431.032 109.454 429.705 109.921 428.258C112.639 419.835 127.407 420.987 128.411 429.88C128.908 434.305 126.569 437.478 122.131 437.923C119.12 438.224 117.161 434.848 118.218 432.438C118.222 432.429 118.232 432.425 118.241 432.427C118.245 432.427 118.249 432.43 118.252 432.433C119.983 434.962 122.342 434.251 125.327 430.298C123.735 427.31 121.421 425.841 118.387 425.892C114.45 426.202 111.281 430.154 112.902 434.103C115.21 439.719 120.411 440.94 125.594 442.158C126.327 442.33 127.059 442.502 127.783 442.686C134.012 444.274 139.979 446.273 145.411 449.538C145.084 447.922 145.043 446.21 145.239 444.472C138.774 438.594 140.693 427.914 147.794 422.812C152.654 419.319 158.341 417.837 164.278 417.545C166.057 417.458 167.84 417.462 169.622 417.467C171.359 417.471 173.095 417.476 174.825 417.395C178.78 417.209 181.279 415.896 184.228 413.927C184.362 413.611 184.491 413.288 184.601 412.945C184.606 412.935 184.608 412.924 184.612 412.914C184.614 412.906 184.617 412.899 184.621 412.893C184.624 412.885 184.627 412.878 184.63 412.87C184.633 412.863 184.636 412.856 184.639 412.849C184.836 412.208 185.491 412.064 185.956 412.308C186.245 412.392 186.485 412.602 186.543 413.005C187.683 421.116 183.871 432.795 177.241 438.014C169.408 444.18 158.794 445.872 149.009 445.92C148.934 446.82 148.881 447.731 148.827 448.664C148.771 449.641 148.713 450.641 148.627 451.676C148.867 451.852 149.117 452.011 149.354 452.193C159.216 459.781 167.392 471.535 167.704 484.034C171.035 476.035 175.166 468.287 181.076 462.566C179.621 453.388 187.384 446.431 195.913 445.684C196.596 443.261 199.242 440.169 201.305 437.757C202.143 436.777 202.885 435.91 203.36 435.246C207.223 429.846 211.067 424.432 214.787 418.935C222.245 407.909 228.327 397.465 231.663 384.654C231.578 384.552 231.495 384.45 231.412 384.347L231.388 384.318C229.046 381.474 226.843 377.855 226.665 374.05C222.647 371.176 218.407 369.64 214.125 369.173C210.096 379.689 202.565 388.645 192.195 393.305C185.126 396.482 172.083 399.211 164.828 394.445C164.543 394.314 164.292 394.116 164.072 393.863C164.003 393.809 163.931 393.757 163.86 393.705C163.736 393.614 163.611 393.523 163.497 393.421C163.087 393.265 162.664 393.05 162.224 392.758C161.873 392.524 162.092 391.979 162.51 392.077C166.788 393.068 168.874 386.66 170.688 381.089C171.59 378.317 172.425 375.752 173.429 374.41C176.618 370.143 180.64 366.314 185.407 363.831C194.529 359.077 206.942 357.602 215.053 365.211C215.108 365.262 215.136 365.32 215.173 365.376C215.179 365.385 215.186 365.395 215.193 365.405C219.475 365.892 223.594 367.294 226.995 369.787C228.097 364.229 231.798 359.618 237.367 358.052C237.376 357.913 237.399 357.771 237.444 357.62C245.826 329.908 228.355 307.277 212.001 286.093C207.638 280.44 203.354 274.891 199.662 269.376C191.208 256.748 184.023 242.386 183.934 226.837C183.86 213.892 187.241 201.567 191.366 189.452C190.942 187.476 190.665 185.492 190.389 183.517C189.729 178.795 189.077 174.122 186.445 169.722C185.793 168.63 185.065 167.583 184.281 166.58C174.326 169.92 163.748 172.638 153.196 170.789C148.708 170.003 144.594 168.297 141.554 164.759C141.259 164.416 140.952 164.068 140.64 163.713C138.613 161.413 136.372 158.869 135.786 155.933C135.626 155.808 135.469 155.682 135.315 155.541C135.013 155.261 135.243 154.717 135.652 154.729C140.412 154.872 143.82 154.574 148.206 152.19C148.476 152.043 148.747 151.894 149.019 151.745C151.139 150.58 153.345 149.367 155.688 148.776C160.912 147.456 166.431 147.307 171.676 148.709C177.124 150.165 183.395 154.072 186.588 159.359C186.843 155.972 187.617 152.684 188.926 149.372C189.268 148.506 189.643 147.61 190.027 146.692C192.284 141.294 194.866 135.123 193.082 129.498C192.131 126.505 190.377 123.022 186.863 122.327C183.874 121.482 181.259 122.399 179.022 125.075C178.002 126.768 177.536 128.602 177.626 130.577C182.926 137.87 185.889 136.761 186.511 127.25C186.122 126.395 187.241 125.716 187.778 126.511C191.605 132.175 185.767 142.168 178.806 137.607C172.071 133.196 174.622 123.76 180.463 119.777C188.397 114.368 197.243 125.054 196.763 132.485C196.427 137.709 194.644 142.292 192.802 147.025C192.405 148.046 192.005 149.073 191.617 150.115C190.286 153.687 189.004 157.409 188.962 161.276C188.954 161.96 189.195 165.152 189.473 167.954C191.896 171.878 193.641 176.3 194.416 180.783C194.469 180.638 194.521 180.491 194.574 180.345C194.623 180.206 194.673 180.068 194.723 179.93C200.355 164.28 206.478 147.206 204.35 130.289C202.443 115.136 193.571 105.08 184.158 94.4115C182.698 92.7565 181.225 91.0868 179.763 89.381C173.938 82.585 168.454 74.7999 166.185 66.1898L165.772 66.4797C161.834 60.8659 155.643 58.3371 150.261 57.2343C147.586 56.6861 145.161 56.5014 143.405 56.4544C142.529 56.431 141.823 56.4419 141.341 56.4583L141.241 56.4619L141.196 56.4637C141.077 56.4684 140.975 56.4734 140.892 56.4778C140.177 61.2999 136.021 65 131 65H44C38.4771 65 34 60.5229 34 55C34 49.4771 38.4771 45 44 45H131C136.004 45 140.15 48.6757 140.884 53.4744C140.939 53.4718 140.997 53.4693 141.059 53.4667C141.116 53.4644 141.176 53.4622 141.239 53.4601C141.775 53.4418 142.541 53.4302 143.485 53.4555C145.37 53.506 147.976 53.7037 150.863 54.2953C155.477 55.2406 160.939 57.2207 165.275 61.3348C164.978 58.6497 165.022 55.8924 165.485 53.0674C165.834 50.9341 166.383 48.719 166.942 46.4654C168.463 40.33 170.055 33.9092 167.874 28.0786C166.305 23.8857 162.302 18.1023 156.861 20.0041C153.004 21.3526 148.686 26.7767 153.35 30.5155C159.749 32.4459 162.504 30.7125 161.611 25.3185C161.393 24.5322 162.142 24.0767 162.749 24.2225C163.031 24.224 163.305 24.3578 163.467 24.7141C165.724 29.6406 165.933 38.2097 159.946 40.8601C154.296 43.3617 147.281 41.9365 144.044 36.2253C136.567 23.0303 145.873 5.52374 161.682 7.09927C166.508 7.58105 170.681 10.7505 173.446 14.7495C173.68 14.1432 173.973 13.5202 174.341 12.9114C175.292 11.34 176.754 9.84451 178.962 9.02374C181.086 8.23392 183.747 8.12582 187.053 8.96356ZM172.503 19.3365C172.246 18.8214 171.965 18.3163 171.656 17.8227C167.338 10.9178 158.547 7.18045 151.309 12.6346C145.018 17.3762 141.807 27.6998 146.848 34.5866C149.697 38.4788 158.343 42.5108 161.423 35.8224C162.232 34.065 162.481 32.4865 162.453 30.9094C160.474 34.3912 156.367 36.6928 152.693 33.8665C146.833 29.361 146.654 20.0432 154.462 17.1732C165.551 13.0962 173.407 25.2658 172.567 35.2692C172.289 38.5769 171.516 41.9212 170.739 45.279C169.39 51.116 168.031 56.994 169.249 62.7926C171.035 71.2941 175.597 78.7026 181.21 85.2392C183.14 87.488 185.169 89.7077 187.21 91.9399C195.371 100.868 203.715 109.996 206.673 121.983C210.541 137.661 207.543 153.852 202.592 168.948C201.166 173.295 199.56 177.655 197.944 182.04C193.096 195.199 188.164 208.586 187.773 222.547C187.247 241.354 195.531 257.667 206.433 272.484C208.808 275.713 211.335 278.998 213.909 282.344C230.713 304.19 249.515 328.633 241.211 357.102C246.275 356.467 253.565 361.233 256.108 364.08C263.191 372.018 268.184 382.335 272.291 392.073C273.296 394.457 274.268 397.008 275.069 399.641C281.349 388.221 282.603 375.373 282.56 362.381L282.557 361.599C282.535 354.466 282.513 347.28 280.65 340.341C280.24 338.812 279.767 337.285 279.293 335.754C278.783 334.109 278.273 332.461 277.837 330.8C275.357 327.126 273.172 323.199 270.987 319.272C268.932 315.579 266.877 311.887 264.579 308.409C259.535 300.774 254.21 293.335 248.88 285.898C243.816 278.832 238.71 271.81 233.565 264.806C233.08 264.145 232.577 263.474 232.067 262.792C229.957 259.973 227.71 256.97 225.965 253.795C219.289 243.78 216.937 230.75 216.883 219.094C216.843 210.146 217.196 201.208 217.944 192.29C218.055 190.963 218.146 189.588 218.238 188.186C218.523 183.862 218.824 179.281 219.8 175.059C219.81 170.828 220.486 166.594 221.161 162.374C221.579 159.753 221.997 157.138 222.254 154.532C222.891 148.075 223.393 141.457 222.904 134.97C222.294 126.857 220.769 118.684 217.286 111.268C215.857 108.226 214.229 105.296 212.603 102.367C212.065 101.398 211.527 100.429 210.996 99.4564C206.925 94.4584 202.124 90.2544 197.32 86.049C192.946 82.2195 188.571 78.3889 184.745 73.9565C176.087 63.9261 174.211 53.786 174.754 40.7684C174.778 40.2048 174.804 39.634 174.83 39.0574C175.124 32.5876 175.45 25.394 172.583 19.4992C172.5 19.499 172.5 19.4987 172.5 19.4984V19.4964L172.5 19.4916L172.5 19.4786L172.501 19.439C172.501 19.4125 172.502 19.3782 172.503 19.3365ZM400 301.5H313C308.858 301.5 305.5 304.858 305.5 309C305.5 313.142 308.858 316.5 313 316.5H400C404.142 316.5 407.5 313.142 407.5 309C407.5 304.858 404.142 301.5 400 301.5ZM44 47.5H131C135.142 47.5 138.5 50.8578 138.5 55C138.5 59.1422 135.142 62.5 131 62.5H44C39.8578 62.5 36.5 59.1422 36.5 55C36.5 50.8578 39.8578 47.5 44 47.5ZM77 420.5H10C5.85785 420.5 2.5 423.858 2.5 428C2.5 432.142 5.85788 435.5 10 435.5H77C81.1422 435.5 84.5 432.142 84.5 428C84.5 423.858 81.1422 420.5 77 420.5ZM217.162 13H218.349V7.7168H217.162V13ZM217.26 5.89062C217.146 6.01108 217.089 6.16245 217.089 6.34473C217.089 6.52377 217.146 6.67349 217.26 6.79395C217.377 6.91113 217.543 6.96973 217.758 6.96973C217.973 6.96973 218.139 6.91113 218.256 6.79395C218.373 6.67349 218.432 6.52377 218.432 6.34473C218.432 6.16245 218.373 6.01108 218.256 5.89062C218.139 5.77017 217.973 5.70996 217.758 5.70996C217.543 5.70996 217.377 5.77017 217.26 5.89062ZM200.438 11.1689C200.438 10.8564 200.328 10.6156 200.106 10.4463C199.888 10.277 199.493 10.1061 198.92 9.93359C198.347 9.76108 197.891 9.569 197.553 9.35742C196.905 8.95053 196.581 8.41992 196.581 7.76562C196.581 7.19272 196.814 6.7207 197.279 6.34961C197.748 5.97852 198.355 5.79297 199.101 5.79297C199.595 5.79297 200.036 5.88412 200.424 6.06641C200.811 6.24869 201.116 6.50912 201.337 6.84766C201.558 7.18295 201.669 7.55566 201.669 7.96582H200.438C200.438 7.59473 200.321 7.30502 200.087 7.09668C199.856 6.8851 199.524 6.7793 199.091 6.7793C198.687 6.7793 198.373 6.86557 198.148 7.03809C197.927 7.2106 197.816 7.45151 197.816 7.76074C197.816 8.02115 197.937 8.23926 198.178 8.41504C198.419 8.58755 198.816 8.75684 199.369 8.92285C199.923 9.0856 200.367 9.2728 200.702 9.48438C201.037 9.69272 201.283 9.93359 201.439 10.207C201.596 10.4772 201.674 10.7946 201.674 11.1592C201.674 11.7516 201.446 12.2236 200.99 12.5752C200.538 12.9235 199.923 13.0977 199.145 13.0977C198.63 13.0977 198.157 13.0033 197.724 12.8145C197.294 12.6224 196.959 12.3587 196.718 12.0234C196.48 11.6881 196.361 11.2975 196.361 10.8516H197.597C197.597 11.2552 197.73 11.5677 197.997 11.7891C198.264 12.0104 198.646 12.1211 199.145 12.1211C199.574 12.1211 199.896 12.0348 200.111 11.8623C200.329 11.6865 200.438 11.4554 200.438 11.1689ZM204.813 12.1504C205.11 12.1504 205.355 12.0641 205.551 11.8916C205.746 11.7191 205.85 11.5059 205.863 11.252H206.981C206.968 11.5807 206.866 11.8883 206.674 12.1748C206.482 12.458 206.221 12.6826 205.893 12.8486C205.564 13.0146 205.209 13.0977 204.828 13.0977C204.089 13.0977 203.503 12.8584 203.07 12.3799C202.637 11.9014 202.421 11.2406 202.421 10.3975V10.2754C202.421 9.47134 202.636 8.82846 203.065 8.34668C203.495 7.86166 204.081 7.61914 204.823 7.61914C205.452 7.61914 205.963 7.80307 206.356 8.1709C206.754 8.53549 206.962 9.01562 206.981 9.61133H205.863C205.85 9.30859 205.746 9.05957 205.551 8.86426C205.359 8.66895 205.113 8.57129 204.813 8.57129C204.429 8.57129 204.133 8.71127 203.925 8.99121C203.716 9.26791 203.611 9.68945 203.607 10.2559V10.4463C203.607 11.0192 203.71 11.4473 203.915 11.7305C204.123 12.0104 204.423 12.1504 204.813 12.1504ZM207.963 8.91309C207.758 9.32651 207.655 9.79199 207.655 10.3096V10.3682C207.655 11.195 207.878 11.8574 208.324 12.3555C208.773 12.8503 209.371 13.0977 210.116 13.0977C210.604 13.0977 211.034 12.9854 211.405 12.7607C211.78 12.5361 212.066 12.2188 212.265 11.8086C212.466 11.3984 212.567 10.933 212.567 10.4121L212.562 10.1338C212.527 9.37534 212.286 8.7666 211.84 8.30762C211.397 7.84863 210.819 7.61914 210.106 7.61914C209.625 7.61914 209.198 7.73145 208.827 7.95605C208.456 8.1774 208.168 8.49643 207.963 8.91309ZM209.179 11.6914C208.954 11.3822 208.842 10.9557 208.842 10.4121C208.842 9.80014 208.956 9.34116 209.184 9.03516C209.411 8.72592 209.719 8.57129 210.106 8.57129C210.5 8.57129 210.811 8.72754 211.039 9.04004C211.27 9.35254 211.386 9.77573 211.386 10.3096C211.386 10.9118 211.273 11.3691 211.049 11.6816C210.827 11.9941 210.517 12.1504 210.116 12.1504C209.716 12.1504 209.403 11.9974 209.179 11.6914ZM216.337 8.80078C216.181 8.77475 216.02 8.76172 215.854 8.76172C215.31 8.76172 214.944 8.97006 214.755 9.38672V13H213.568V7.7168H214.701L214.73 8.30762C215.017 7.84863 215.414 7.61914 215.922 7.61914C216.091 7.61914 216.231 7.64194 216.342 7.6875L216.337 8.80078ZM220.746 7.7168L220.78 8.32715C221.171 7.85513 221.684 7.61914 222.318 7.61914C223.419 7.61914 223.979 8.24902 223.998 9.50879V13H222.812V9.57715C222.812 9.24185 222.738 8.99448 222.592 8.83496C222.449 8.67221 222.213 8.59082 221.884 8.59082C221.405 8.59082 221.049 8.80728 220.814 9.24023V13H219.628V7.7168H220.746ZM225.58 8.35645C225.196 8.84473 225.004 9.49902 225.004 10.3193C225.004 11.1885 225.199 11.8688 225.59 12.3604C225.984 12.8519 226.49 13.0977 227.108 13.0977C227.678 13.0977 228.134 12.9072 228.476 12.5264V12.8828C228.476 13.2962 228.362 13.6087 228.134 13.8203C227.906 14.0352 227.595 14.1426 227.201 14.1426C226.667 14.1426 226.218 13.9261 225.854 13.4932L225.292 14.2061C225.484 14.4665 225.764 14.6764 226.132 14.8359C226.503 14.9987 226.882 15.0801 227.27 15.0801C228.002 15.0801 228.583 14.8799 229.013 14.4795C229.446 14.0791 229.662 13.5322 229.662 12.8389V7.7168H228.593L228.539 8.24902C228.194 7.8291 227.72 7.61914 227.118 7.61914C226.48 7.61914 225.967 7.8649 225.58 8.35645ZM226.508 11.6768C226.293 11.3708 226.186 10.9525 226.186 10.4219C226.186 9.81967 226.293 9.36392 226.508 9.05469C226.726 8.74545 227.03 8.59082 227.421 8.59082C227.899 8.59082 228.251 8.79102 228.476 9.19141V11.5156C228.244 11.9258 227.89 12.1309 227.411 12.1309C227.027 12.1309 226.726 11.9795 226.508 11.6768ZM233.153 10.3096C233.153 9.79199 233.256 9.32651 233.461 8.91309C233.666 8.49643 233.954 8.1774 234.325 7.95605C234.696 7.73145 235.123 7.61914 235.604 7.61914C236.317 7.61914 236.895 7.84863 237.338 8.30762C237.784 8.7666 238.025 9.37534 238.061 10.1338L238.065 10.4121C238.065 10.933 237.965 11.3984 237.763 11.8086C237.564 12.2188 237.278 12.5361 236.903 12.7607C236.532 12.9854 236.103 13.0977 235.614 13.0977C234.869 13.0977 234.271 12.8503 233.822 12.3555C233.376 11.8574 233.153 11.195 233.153 10.3682V10.3096ZM234.34 10.4121C234.34 10.9557 234.452 11.3822 234.677 11.6914C234.901 11.9974 235.214 12.1504 235.614 12.1504C236.015 12.1504 236.326 11.9941 236.547 11.6816C236.771 11.3691 236.884 10.9118 236.884 10.3096C236.884 9.77573 236.768 9.35254 236.537 9.04004C236.309 8.72754 235.998 8.57129 235.604 8.57129C235.217 8.57129 234.91 8.72592 234.682 9.03516C234.454 9.34116 234.34 9.80014 234.34 10.4121ZM240.785 13.0977C241.426 13.0977 241.921 12.8926 242.27 12.4824L242.299 13H243.417V7.7168H242.23V11.5107C242.029 11.9242 241.64 12.1309 241.063 12.1309C240.507 12.1309 240.229 11.7956 240.229 11.125V7.7168H239.042V11.1396C239.042 11.7744 239.188 12.2594 239.481 12.5947C239.778 12.93 240.212 13.0977 240.785 13.0977ZM246.112 6.43262V7.7168H247.045V8.5957H246.112V11.5449C246.112 11.7467 246.151 11.8932 246.229 11.9844C246.311 12.0723 246.454 12.1162 246.659 12.1162C246.796 12.1162 246.934 12.0999 247.074 12.0674V12.9854C246.804 13.0602 246.544 13.0977 246.293 13.0977C245.382 13.0977 244.926 12.5947 244.926 11.5889V8.5957H244.057V7.7168H244.926V6.43262H246.112ZM252.025 12.3701C252.396 11.8818 252.582 11.2292 252.582 10.4121V10.3389C252.582 9.48599 252.398 8.82031 252.03 8.3418C251.666 7.86002 251.161 7.61914 250.517 7.61914C249.918 7.61914 249.444 7.83072 249.096 8.25391L249.047 7.7168H247.953V15.0312H249.14V12.5264C249.488 12.9072 249.952 13.0977 250.531 13.0977C251.156 13.0977 251.654 12.8551 252.025 12.3701ZM251.083 9.05469C251.295 9.36392 251.4 9.78223 251.4 10.3096C251.4 10.9281 251.293 11.3903 251.078 11.6963C250.867 11.999 250.572 12.1504 250.194 12.1504C249.706 12.1504 249.354 11.9453 249.14 11.5352V9.19141C249.351 8.79102 249.7 8.59082 250.185 8.59082C250.575 8.59082 250.875 8.74545 251.083 9.05469ZM256.791 12.4824C256.443 12.8926 255.948 13.0977 255.307 13.0977C254.734 13.0977 254.299 12.93 254.003 12.5947C253.71 12.2594 253.563 11.7744 253.563 11.1396V7.7168H254.75V11.125C254.75 11.7956 255.028 12.1309 255.585 12.1309C256.161 12.1309 256.55 11.9242 256.752 11.5107V7.7168H257.938V13H256.82L256.791 12.4824ZM260.634 7.7168V6.43262H259.447V7.7168H258.578V8.5957H259.447V11.5889C259.447 12.5947 259.903 13.0977 260.814 13.0977C261.065 13.0977 261.326 13.0602 261.596 12.9854V12.0674C261.456 12.0999 261.317 12.1162 261.181 12.1162C260.976 12.1162 260.832 12.0723 260.751 11.9844C260.673 11.8932 260.634 11.7467 260.634 11.5449V8.5957H261.566V7.7168H260.634ZM313.025 307.596V312H314.212V307.596H315.286V306.717H314.212V306.248C314.212 305.665 314.495 305.374 315.062 305.374C315.081 305.374 315.099 305.374 315.118 305.374C315.168 305.375 315.216 305.377 315.262 305.38C315.304 305.383 315.345 305.387 315.384 305.392C315.43 305.398 315.474 305.405 315.516 305.413L315.545 304.485C315.311 304.427 315.089 304.397 314.881 304.397C314.295 304.397 313.839 304.557 313.514 304.876C313.188 305.195 313.025 305.647 313.025 306.233V306.717H312.22V307.596H313.025ZM316.531 311.39C317 311.862 317.61 312.098 318.362 312.098C318.802 312.098 319.197 312.011 319.549 311.839C319.904 311.663 320.187 311.417 320.398 311.102L319.759 310.491C319.417 310.931 318.974 311.15 318.431 311.15C318.043 311.15 317.721 311.023 317.464 310.77C317.21 310.516 317.065 310.171 317.029 309.734H320.481V309.256C320.481 308.416 320.284 307.767 319.891 307.308C319.5 306.849 318.945 306.619 318.226 306.619C317.773 306.619 317.363 306.735 316.995 306.966C316.627 307.197 316.341 307.521 316.136 307.938C315.934 308.351 315.833 308.821 315.833 309.349V309.495C315.833 310.283 316.066 310.914 316.531 311.39ZM317.43 307.913C317.632 307.685 317.895 307.571 318.221 307.571C318.549 307.571 318.807 307.674 318.992 307.879C319.178 308.081 319.284 308.38 319.31 308.777V308.865H317.049C317.104 308.458 317.231 308.141 317.43 307.913ZM324.563 312C324.511 311.899 324.466 311.735 324.427 311.507C324.049 311.901 323.587 312.098 323.04 312.098C322.509 312.098 322.076 311.946 321.741 311.644C321.406 311.341 321.238 310.966 321.238 310.521C321.238 309.957 321.447 309.526 321.863 309.227C322.283 308.924 322.882 308.772 323.66 308.772H324.388V308.426C324.388 308.152 324.311 307.934 324.158 307.771C324.005 307.605 323.772 307.522 323.46 307.522C323.19 307.522 322.968 307.591 322.796 307.728C322.623 307.861 322.537 308.032 322.537 308.24H321.351C321.351 307.951 321.447 307.68 321.639 307.43C321.831 307.176 322.091 306.977 322.42 306.834C322.752 306.691 323.121 306.619 323.528 306.619C324.147 306.619 324.64 306.775 325.008 307.088C325.376 307.397 325.564 307.833 325.574 308.396V310.779C325.574 311.255 325.641 311.634 325.774 311.917V312H324.563ZM323.26 311.146C323.494 311.146 323.714 311.089 323.919 310.975C324.127 310.861 324.284 310.708 324.388 310.516V309.52H323.748C323.309 309.52 322.978 309.596 322.757 309.749C322.535 309.902 322.425 310.118 322.425 310.398C322.425 310.626 322.5 310.809 322.649 310.945C322.802 311.079 323.006 311.146 323.26 311.146ZM328.304 306.717V305.433H327.117V306.717H326.248V307.596H327.117V310.589C327.117 311.595 327.573 312.098 328.484 312.098C328.735 312.098 328.995 312.06 329.266 311.985V311.067C329.126 311.1 328.987 311.116 328.851 311.116C328.646 311.116 328.502 311.072 328.421 310.984C328.343 310.893 328.304 310.747 328.304 310.545V307.596H329.236V306.717H328.304ZM333.348 311.482C332.999 311.893 332.505 312.098 331.863 312.098C331.29 312.098 330.856 311.93 330.56 311.595C330.267 311.259 330.12 310.774 330.12 310.14V306.717H331.307V310.125C331.307 310.796 331.585 311.131 332.142 311.131C332.718 311.131 333.107 310.924 333.309 310.511V306.717H334.495V312H333.377L333.348 311.482ZM337.986 307.762C338.152 307.762 338.313 307.775 338.47 307.801L338.475 306.688C338.364 306.642 338.224 306.619 338.055 306.619C337.547 306.619 337.15 306.849 336.863 307.308L336.834 306.717H335.701V312H336.888V308.387C337.076 307.97 337.443 307.762 337.986 307.762ZM341.448 312.098C340.696 312.098 340.086 311.862 339.617 311.39C339.152 310.914 338.919 310.283 338.919 309.495V309.349C338.919 308.821 339.02 308.351 339.222 307.938C339.427 307.521 339.713 307.197 340.081 306.966C340.449 306.735 340.859 306.619 341.312 306.619C342.031 306.619 342.586 306.849 342.977 307.308C343.37 307.767 343.567 308.416 343.567 309.256V309.734H340.115C340.151 310.171 340.296 310.516 340.55 310.77C340.807 311.023 341.129 311.15 341.517 311.15C342.06 311.15 342.503 310.931 342.845 310.491L343.484 311.102C343.273 311.417 342.99 311.663 342.635 311.839C342.283 312.011 341.888 312.098 341.448 312.098ZM341.307 307.571C340.981 307.571 340.717 307.685 340.516 307.913C340.317 308.141 340.19 308.458 340.135 308.865H342.396V308.777C342.369 308.38 342.264 308.081 342.078 307.879C341.893 307.674 341.635 307.571 341.307 307.571ZM347.19 310.081C347.366 310.192 347.454 310.353 347.454 310.564C347.454 310.757 347.373 310.913 347.21 311.033C347.047 311.15 346.81 311.209 346.497 311.209C346.175 311.209 345.916 311.134 345.721 310.984C345.525 310.831 345.42 310.615 345.403 310.335H344.251C344.251 310.651 344.345 310.945 344.534 311.219C344.723 311.492 344.987 311.707 345.325 311.863C345.664 312.02 346.049 312.098 346.482 312.098C347.12 312.098 347.636 311.951 348.03 311.658C348.424 311.362 348.621 310.976 348.621 310.501C348.621 310.218 348.556 309.977 348.426 309.778C348.299 309.58 348.102 309.41 347.835 309.271C347.571 309.127 347.207 309.005 346.741 308.904C346.276 308.8 345.966 308.698 345.813 308.597C345.66 308.496 345.584 308.354 345.584 308.172C345.584 307.97 345.665 307.809 345.828 307.688C345.994 307.568 346.207 307.508 346.468 307.508C346.748 307.508 346.972 307.584 347.142 307.737C347.311 307.887 347.396 308.076 347.396 308.304H348.582C348.582 307.806 348.387 307.4 347.996 307.088C347.609 306.775 347.099 306.619 346.468 306.619C345.875 306.619 345.387 306.772 345.003 307.078C344.619 307.384 344.427 307.765 344.427 308.221C344.427 308.764 344.723 309.179 345.315 309.466C345.586 309.596 345.923 309.703 346.326 309.788C346.73 309.873 347.018 309.97 347.19 310.081ZM354.476 312.098C353.724 312.098 353.113 311.862 352.645 311.39C352.179 310.914 351.946 310.283 351.946 309.495V309.349C351.946 308.821 352.047 308.351 352.249 307.938C352.454 307.521 352.741 307.197 353.108 306.966C353.476 306.735 353.886 306.619 354.339 306.619C355.058 306.619 355.613 306.849 356.004 307.308C356.398 307.767 356.595 308.416 356.595 309.256V309.734H353.143C353.178 310.171 353.323 310.516 353.577 310.77C353.834 311.023 354.157 311.15 354.544 311.15C355.088 311.15 355.53 310.931 355.872 310.491L356.512 311.102C356.3 311.417 356.017 311.663 355.662 311.839C355.311 312.011 354.915 312.098 354.476 312.098ZM354.334 307.571C354.008 307.571 353.745 307.685 353.543 307.913C353.344 308.141 353.217 308.458 353.162 308.865H355.423V308.777C355.397 308.38 355.291 308.081 355.105 307.879C354.92 307.674 354.663 307.571 354.334 307.571ZM358.655 307.327L358.621 306.717H357.503V312H358.689V308.24C358.924 307.807 359.28 307.591 359.759 307.591C360.088 307.591 360.324 307.672 360.467 307.835C360.613 307.994 360.687 308.242 360.687 308.577V312H361.873V308.509C361.854 307.249 361.294 306.619 360.193 306.619C359.559 306.619 359.046 306.855 358.655 307.327ZM362.879 309.319C362.879 308.499 363.071 307.845 363.455 307.356C363.842 306.865 364.355 306.619 364.993 306.619C365.595 306.619 366.069 306.829 366.414 307.249L366.468 306.717H367.537V311.839C367.537 312.532 367.321 313.079 366.888 313.479C366.458 313.88 365.877 314.08 365.145 314.08C364.757 314.08 364.378 313.999 364.007 313.836C363.639 313.676 363.359 313.466 363.167 313.206L363.729 312.493C364.093 312.926 364.542 313.143 365.076 313.143C365.47 313.143 365.781 313.035 366.009 312.82C366.237 312.609 366.351 312.296 366.351 311.883V311.526C366.009 311.907 365.553 312.098 364.983 312.098C364.365 312.098 363.859 311.852 363.465 311.36C363.074 310.869 362.879 310.188 362.879 309.319ZM364.061 309.422C364.061 309.952 364.168 310.371 364.383 310.677C364.601 310.979 364.902 311.131 365.286 311.131C365.765 311.131 366.119 310.926 366.351 310.516V308.191C366.126 307.791 365.774 307.591 365.296 307.591C364.905 307.591 364.601 307.745 364.383 308.055C364.168 308.364 364.061 308.82 364.061 309.422ZM368.836 312H370.022V306.717H368.836V312ZM368.934 304.891C368.82 305.011 368.763 305.162 368.763 305.345C368.763 305.524 368.82 305.674 368.934 305.794C369.051 305.911 369.217 305.97 369.432 305.97C369.646 305.97 369.812 305.911 369.93 305.794C370.047 305.674 370.105 305.524 370.105 305.345C370.105 305.162 370.047 305.011 369.93 304.891C369.812 304.77 369.646 304.71 369.432 304.71C369.217 304.71 369.051 304.77 368.934 304.891ZM372.42 306.717L372.454 307.327C372.845 306.855 373.357 306.619 373.992 306.619C375.092 306.619 375.652 307.249 375.672 308.509V312H374.485V308.577C374.485 308.242 374.412 307.994 374.266 307.835C374.122 307.672 373.886 307.591 373.558 307.591C373.079 307.591 372.723 307.807 372.488 308.24V312H371.302V306.717H372.42ZM377.381 311.39C377.85 311.862 378.46 312.098 379.212 312.098C379.651 312.098 380.047 312.011 380.398 311.839C380.753 311.663 381.036 311.417 381.248 311.102L380.608 310.491C380.267 310.931 379.824 311.15 379.28 311.15C378.893 311.15 378.571 311.023 378.313 310.77C378.06 310.516 377.915 310.171 377.879 309.734H381.331V309.256C381.331 308.416 381.134 307.767 380.74 307.308C380.35 306.849 379.795 306.619 379.075 306.619C378.623 306.619 378.213 306.735 377.845 306.966C377.477 307.197 377.19 307.521 376.985 307.938C376.784 308.351 376.683 308.821 376.683 309.349V309.495C376.683 310.283 376.915 310.914 377.381 311.39ZM378.279 307.913C378.481 307.685 378.745 307.571 379.07 307.571C379.399 307.571 379.656 307.674 379.842 307.879C380.027 308.081 380.133 308.38 380.159 308.777V308.865H377.898C377.954 308.458 378.081 308.141 378.279 307.913ZM384.583 312.098C383.831 312.098 383.221 311.862 382.752 311.39C382.286 310.914 382.054 310.283 382.054 309.495V309.349C382.054 308.821 382.155 308.351 382.356 307.938C382.562 307.521 382.848 307.197 383.216 306.966C383.584 306.735 383.994 306.619 384.446 306.619C385.166 306.619 385.721 306.849 386.111 307.308C386.505 307.767 386.702 308.416 386.702 309.256V309.734H383.25C383.286 310.171 383.431 310.516 383.685 310.77C383.942 311.023 384.264 311.15 384.651 311.15C385.195 311.15 385.638 310.931 385.979 310.491L386.619 311.102C386.408 311.417 386.124 311.663 385.77 311.839C385.418 312.011 385.022 312.098 384.583 312.098ZM384.441 307.571C384.116 307.571 383.852 307.685 383.65 307.913C383.452 308.141 383.325 308.458 383.27 308.865H385.53V308.777C385.504 308.38 385.398 308.081 385.213 307.879C385.027 307.674 384.77 307.571 384.441 307.571ZM390.173 307.773C390.247 307.779 390.321 307.789 390.394 307.801L390.398 306.688C390.288 306.642 390.148 306.619 389.979 306.619C389.471 306.619 389.074 306.849 388.787 307.308L388.758 306.717H387.625V312H388.812V308.387C389 307.97 389.367 307.762 389.91 307.762C389.999 307.762 390.086 307.765 390.173 307.773ZM392.405 312H391.219V306.717H392.405V312ZM391.146 305.345C391.146 305.162 391.202 305.011 391.316 304.891C391.434 304.77 391.6 304.71 391.814 304.71C392.029 304.71 392.195 304.77 392.312 304.891C392.43 305.011 392.488 305.162 392.488 305.345C392.488 305.524 392.43 305.674 392.312 305.794C392.195 305.911 392.029 305.97 391.814 305.97C391.6 305.97 391.434 305.911 391.316 305.794C391.202 305.674 391.146 305.524 391.146 305.345ZM394.837 307.327L394.803 306.717H393.685V312H394.871V308.24C395.105 307.807 395.462 307.591 395.94 307.591C396.269 307.591 396.505 307.672 396.648 307.835C396.795 307.994 396.868 308.242 396.868 308.577V312H398.055V308.509C398.035 307.249 397.475 306.619 396.375 306.619C395.74 306.619 395.228 306.855 394.837 307.327ZM399.061 309.319C399.061 308.499 399.253 307.845 399.637 307.356C400.024 306.865 400.537 306.619 401.175 306.619C401.777 306.619 402.251 306.829 402.596 307.249L402.649 306.717H403.719V311.839C403.719 312.532 403.502 313.079 403.069 313.479C402.64 313.88 402.059 314.08 401.326 314.08C400.939 314.08 400.56 313.999 400.188 313.836C399.821 313.676 399.541 313.466 399.349 313.206L399.91 312.493C400.275 312.926 400.724 313.143 401.258 313.143C401.652 313.143 401.963 313.035 402.19 312.82C402.418 312.609 402.532 312.296 402.532 311.883V311.526C402.19 311.907 401.735 312.098 401.165 312.098C400.547 312.098 400.04 311.852 399.646 311.36C399.256 310.869 399.061 310.188 399.061 309.319ZM400.242 309.422C400.242 309.952 400.35 310.371 400.564 310.677C400.783 310.979 401.084 311.131 401.468 311.131C401.946 311.131 402.301 310.926 402.532 310.516V308.191C402.308 307.791 401.956 307.591 401.478 307.591C401.087 307.591 400.783 307.745 400.564 308.055C400.35 308.364 400.242 308.82 400.242 309.422ZM50.3438 58H51.5303V50.5H50.3438V58ZM44.3721 58L44.9482 56.3447H47.7021L48.2832 58H49.5723L46.8818 50.8906H45.7734L43.0879 58H44.3721ZM46.3252 52.3994L47.3555 55.3486H45.2949L46.3252 52.3994ZM52.6191 55.3193C52.6191 54.499 52.8112 53.8447 53.1953 53.3564C53.5827 52.8649 54.0954 52.6191 54.7334 52.6191C55.3356 52.6191 55.8092 52.8291 56.1543 53.249L56.208 52.7168H57.2773V57.8389C57.2773 58.5322 57.0609 59.0791 56.6279 59.4795C56.1982 59.8799 55.6172 60.0801 54.8848 60.0801C54.4974 60.0801 54.1182 59.9987 53.7471 59.8359C53.3792 59.6764 53.0993 59.4665 52.9072 59.2061L53.4688 58.4932C53.8333 58.9261 54.2826 59.1426 54.8164 59.1426C55.2103 59.1426 55.5211 59.0352 55.749 58.8203C55.9769 58.6087 56.0908 58.2962 56.0908 57.8828V57.5264C55.749 57.9072 55.2933 58.0977 54.7236 58.0977C54.1051 58.0977 53.599 57.8519 53.2051 57.3604C52.8145 56.8688 52.6191 56.1885 52.6191 55.3193ZM53.8008 55.4219C53.8008 55.9525 53.9082 56.3708 54.123 56.6768C54.3412 56.9795 54.6422 57.1309 55.0264 57.1309C55.5049 57.1309 55.8597 56.9258 56.0908 56.5156V54.1914C55.8662 53.791 55.5146 53.5908 55.0361 53.5908C54.6455 53.5908 54.3412 53.7455 54.123 54.0547C53.9082 54.3639 53.8008 54.8197 53.8008 55.4219ZM58.5859 53.9131C58.3809 54.3265 58.2783 54.792 58.2783 55.3096V55.3682C58.2783 56.195 58.5013 56.8574 58.9473 57.3555C59.3965 57.8503 59.9938 58.0977 60.7393 58.0977C61.2275 58.0977 61.6572 57.9854 62.0283 57.7607C62.4027 57.5361 62.6891 57.2188 62.8877 56.8086C63.0895 56.3984 63.1904 55.933 63.1904 55.4121L63.1855 55.1338C63.1497 54.3753 62.9088 53.7666 62.4629 53.3076C62.0202 52.8486 61.4424 52.6191 60.7295 52.6191C60.2477 52.6191 59.8213 52.7314 59.4502 52.9561C59.0791 53.1774 58.791 53.4964 58.5859 53.9131ZM59.8018 56.6914C59.5771 56.3822 59.4648 55.9557 59.4648 55.4121C59.4648 54.8001 59.5788 54.3412 59.8066 54.0352C60.0345 53.7259 60.3421 53.5713 60.7295 53.5713C61.1234 53.5713 61.4342 53.7275 61.6621 54.04C61.8932 54.3525 62.0088 54.7757 62.0088 55.3096C62.0088 55.9118 61.8965 56.3691 61.6719 56.6816C61.4505 56.9941 61.1396 57.1504 60.7393 57.1504C60.3389 57.1504 60.0264 56.9974 59.8018 56.6914ZM66.96 53.8008C66.8037 53.7747 66.6426 53.7617 66.4766 53.7617C65.933 53.7617 65.5667 53.9701 65.3779 54.3867V58H64.1914V52.7168H65.3242L65.3535 53.3076C65.64 52.8486 66.0371 52.6191 66.5449 52.6191C66.7142 52.6191 66.8542 52.6419 66.9648 52.6875L66.96 53.8008ZM67.7852 58H68.9717V52.7168H67.7852V58ZM67.8828 50.8906C67.7689 51.0111 67.7119 51.1624 67.7119 51.3447C67.7119 51.5238 67.7689 51.6735 67.8828 51.7939C68 51.9111 68.166 51.9697 68.3809 51.9697C68.5957 51.9697 68.7617 51.9111 68.8789 51.7939C68.9961 51.6735 69.0547 51.5238 69.0547 51.3447C69.0547 51.1624 68.9961 51.0111 68.8789 50.8906C68.7617 50.7702 68.5957 50.71 68.3809 50.71C68.166 50.71 68 50.7702 67.8828 50.8906ZM71.7549 51.4326V52.7168H72.6875V53.5957H71.7549V56.5449C71.7549 56.7467 71.7939 56.8932 71.8721 56.9844C71.9535 57.0723 72.0967 57.1162 72.3018 57.1162C72.4385 57.1162 72.5768 57.0999 72.7168 57.0674V57.9854C72.4466 58.0602 72.1862 58.0977 71.9355 58.0977C71.0241 58.0977 70.5684 57.5947 70.5684 56.5889V53.5957H69.6992V52.7168H70.5684V51.4326H71.7549ZM76.2373 52.6191C75.6449 52.6191 75.1549 52.8438 74.7676 53.293V50.5H73.5811V58H74.7676V54.2256C75.002 53.8024 75.3568 53.5908 75.832 53.5908C76.138 53.5908 76.3691 53.6673 76.5254 53.8203C76.6849 53.9701 76.7646 54.2272 76.7646 54.5918V58H77.9512V54.5479C77.9349 53.2621 77.3636 52.6191 76.2373 52.6191ZM80.2705 52.7168L80.3047 53.2686C80.6758 52.8356 81.1836 52.6191 81.8281 52.6191C82.5345 52.6191 83.0179 52.8893 83.2783 53.4297C83.6624 52.8893 84.2028 52.6191 84.8994 52.6191C85.4821 52.6191 85.915 52.7803 86.1982 53.1025C86.4847 53.4248 86.6312 53.9001 86.6377 54.5283V58H85.4512V54.5625C85.4512 54.2272 85.3779 53.9814 85.2314 53.8252C85.085 53.6689 84.8424 53.5908 84.5039 53.5908C84.2337 53.5908 84.0124 53.6641 83.8398 53.8105C83.6706 53.9538 83.5518 54.1426 83.4834 54.377L83.4883 58H82.3018V54.5234C82.2855 53.9017 81.9681 53.5908 81.3496 53.5908C80.8744 53.5908 80.5374 53.7845 80.3389 54.1719V58H79.1523V52.7168H80.2705ZM93.0439 56.0811C93.2197 56.1917 93.3076 56.3529 93.3076 56.5645C93.3076 56.7565 93.2262 56.9128 93.0635 57.0332C92.9007 57.1504 92.6631 57.209 92.3506 57.209C92.0283 57.209 91.7695 57.1341 91.5742 56.9844C91.3789 56.8314 91.2731 56.6149 91.2568 56.335H90.1045C90.1045 56.6507 90.1989 56.9453 90.3877 57.2188C90.5765 57.4922 90.8402 57.707 91.1787 57.8633C91.5172 58.0195 91.903 58.0977 92.3359 58.0977C92.974 58.0977 93.4899 57.9512 93.8838 57.6582C94.2777 57.362 94.4746 56.9762 94.4746 56.501C94.4746 56.2178 94.4095 55.9769 94.2793 55.7783C94.1523 55.5797 93.9554 55.4105 93.6885 55.2705C93.4248 55.1273 93.0602 55.0052 92.5947 54.9043C92.1292 54.8001 91.82 54.6976 91.667 54.5967C91.514 54.4958 91.4375 54.3542 91.4375 54.1719C91.4375 53.9701 91.5189 53.8089 91.6816 53.6885C91.8477 53.568 92.0609 53.5078 92.3213 53.5078C92.6012 53.5078 92.8258 53.5843 92.9951 53.7373C93.1644 53.8871 93.249 54.0758 93.249 54.3037H94.4355C94.4355 53.8057 94.2402 53.4004 93.8496 53.0879C93.4622 52.7754 92.9528 52.6191 92.3213 52.6191C91.7289 52.6191 91.2406 52.7721 90.8564 53.0781C90.4723 53.3841 90.2803 53.765 90.2803 54.2207C90.2803 54.7643 90.5765 55.1794 91.1689 55.4658C91.4391 55.596 91.776 55.7035 92.1797 55.7881C92.5833 55.8727 92.8714 55.9704 93.0439 56.0811ZM97.8389 58.0977C97.0869 58.0977 96.4766 57.8617 96.0078 57.3896C95.5423 56.9144 95.3096 56.2829 95.3096 55.4951V55.3486C95.3096 54.8213 95.4105 54.3509 95.6123 53.9375C95.8174 53.5208 96.1039 53.1969 96.4717 52.9658C96.8395 52.7347 97.2497 52.6191 97.7021 52.6191C98.4215 52.6191 98.9766 52.8486 99.3672 53.3076C99.7611 53.7666 99.958 54.416 99.958 55.2559V55.7344H96.5059C96.5417 56.1706 96.6865 56.5156 96.9404 56.7695C97.1976 57.0234 97.5199 57.1504 97.9072 57.1504C98.4508 57.1504 98.8936 56.9307 99.2354 56.4912L99.875 57.1016C99.6634 57.4173 99.3802 57.6631 99.0254 57.8389C98.6738 58.0114 98.2783 58.0977 97.8389 58.0977ZM97.6973 53.5713C97.3717 53.5713 97.1081 53.6852 96.9062 53.9131C96.7077 54.141 96.5807 54.4583 96.5254 54.8652H98.7861V54.7773C98.7601 54.3802 98.6543 54.0807 98.4688 53.8789C98.2832 53.6738 98.026 53.5713 97.6973 53.5713ZM100.959 58H102.146V50.5H100.959V58ZM105.769 58.0977C105.017 58.0977 104.406 57.8617 103.938 57.3896C103.472 56.9144 103.239 56.2829 103.239 55.4951V55.3486C103.239 54.8213 103.34 54.3509 103.542 53.9375C103.747 53.5208 104.034 53.1969 104.401 52.9658C104.769 52.7347 105.179 52.6191 105.632 52.6191C106.351 52.6191 106.906 52.8486 107.297 53.3076C107.691 53.7666 107.888 54.416 107.888 55.2559V55.7344H104.436C104.471 56.1706 104.616 56.5156 104.87 56.7695C105.127 57.0234 105.45 57.1504 105.837 57.1504C106.381 57.1504 106.823 56.9307 107.165 56.4912L107.805 57.1016C107.593 57.4173 107.31 57.6631 106.955 57.8389C106.604 58.0114 106.208 58.0977 105.769 58.0977ZM105.627 53.5713C105.301 53.5713 105.038 53.6852 104.836 53.9131C104.637 54.141 104.51 54.4583 104.455 54.8652H106.716V54.7773C106.69 54.3802 106.584 54.0807 106.398 53.8789C106.213 53.6738 105.956 53.5713 105.627 53.5713ZM111.721 56.8916C111.525 57.0641 111.28 57.1504 110.983 57.1504C110.593 57.1504 110.293 57.0104 110.085 56.7305C109.88 56.4473 109.777 56.0192 109.777 55.4463V55.2559C109.781 54.6895 109.886 54.2679 110.095 53.9912C110.303 53.7113 110.599 53.5713 110.983 53.5713C111.283 53.5713 111.529 53.6689 111.721 53.8643C111.916 54.0596 112.02 54.3086 112.033 54.6113H113.151C113.132 54.0156 112.923 53.5355 112.526 53.1709C112.132 52.8031 111.621 52.6191 110.993 52.6191C110.251 52.6191 109.665 52.8617 109.235 53.3467C108.806 53.8285 108.591 54.4713 108.591 55.2754V55.3975C108.591 56.2406 108.807 56.9014 109.24 57.3799C109.673 57.8584 110.259 58.0977 110.998 58.0977C111.379 58.0977 111.734 58.0146 112.062 57.8486C112.391 57.6826 112.652 57.458 112.844 57.1748C113.036 56.8883 113.138 56.5807 113.151 56.252H112.033C112.02 56.5059 111.916 56.7191 111.721 56.8916ZM115.534 51.4326V52.7168H116.467V53.5957H115.534V56.5449C115.534 56.7467 115.573 56.8932 115.651 56.9844C115.733 57.0723 115.876 57.1162 116.081 57.1162C116.104 57.1162 116.127 57.1158 116.151 57.1148C116.167 57.1141 116.184 57.1132 116.201 57.1121C116.298 57.1053 116.397 57.0905 116.496 57.0674V57.9854C116.226 58.0602 115.965 58.0977 115.715 58.0977C114.803 58.0977 114.348 57.5947 114.348 56.5889V53.5957H113.479V52.7168H114.348V51.4326H115.534ZM117.453 58H118.64V52.7168H117.453V58ZM117.551 50.8906C117.437 51.0111 117.38 51.1624 117.38 51.3447C117.38 51.5238 117.437 51.6735 117.551 51.7939C117.668 51.9111 117.834 51.9697 118.049 51.9697C118.264 51.9697 118.43 51.9111 118.547 51.7939C118.664 51.6735 118.723 51.5238 118.723 51.3447C118.723 51.1624 118.664 51.0111 118.547 50.8906C118.43 50.7702 118.264 50.71 118.049 50.71C117.834 50.71 117.668 50.7702 117.551 50.8906ZM119.714 55.3096C119.714 54.792 119.816 54.3265 120.021 53.9131C120.227 53.4964 120.515 53.1774 120.886 52.9561C121.257 52.7314 121.683 52.6191 122.165 52.6191C122.878 52.6191 123.456 52.8486 123.898 53.3076C124.344 53.7666 124.585 54.3753 124.621 55.1338L124.626 55.4121C124.626 55.933 124.525 56.3984 124.323 56.8086C124.125 57.2188 123.838 57.5361 123.464 57.7607C123.093 57.9854 122.663 58.0977 122.175 58.0977C121.429 58.0977 120.832 57.8503 120.383 57.3555C119.937 56.8574 119.714 56.195 119.714 55.3682V55.3096ZM120.9 55.4121C120.9 55.9557 121.013 56.3822 121.237 56.6914C121.462 56.9974 121.774 57.1504 122.175 57.1504C122.575 57.1504 122.886 56.9941 123.107 56.6816C123.332 56.3691 123.444 55.9118 123.444 55.3096C123.444 54.7757 123.329 54.3525 123.098 54.04C122.87 53.7275 122.559 53.5713 122.165 53.5713C121.778 53.5713 121.47 53.7259 121.242 54.0352C121.014 54.3412 120.9 54.8001 120.9 55.4121ZM126.765 53.3271L126.73 52.7168H125.612V58H126.799V54.2402C127.033 53.8073 127.39 53.5908 127.868 53.5908C128.197 53.5908 128.433 53.6722 128.576 53.835C128.723 53.9945 128.796 54.2419 128.796 54.5771V58H129.982V54.5088C129.963 53.249 129.403 52.6191 128.303 52.6191C127.668 52.6191 127.155 52.8551 126.765 53.3271ZM25.1377 426.361C24.7601 426.853 24.5713 427.506 24.5713 428.319C24.5713 429.175 24.7617 429.853 25.1426 430.351C25.5267 430.849 26.028 431.098 26.6465 431.098C27.2389 431.098 27.7126 430.883 28.0674 430.453L28.126 431H29.2002V423.5H28.0137V426.205C27.6686 425.814 27.2162 425.619 26.6562 425.619C26.0215 425.619 25.5153 425.867 25.1377 426.361ZM26.0654 429.682C25.8604 429.379 25.7578 428.959 25.7578 428.422C25.7578 427.81 25.862 427.353 26.0703 427.05C26.2787 426.744 26.5749 426.591 26.959 426.591C27.444 426.591 27.7956 426.802 28.0137 427.226V429.481C27.7891 429.914 27.4342 430.131 26.9492 430.131C26.5684 430.131 26.2738 429.981 26.0654 429.682ZM10.958 431V428.358H12.4277C13.2513 428.358 13.891 428.165 14.3467 427.777C14.8057 427.39 15.0352 426.848 15.0352 426.151C15.0352 425.471 14.8008 424.924 14.332 424.511C13.8665 424.097 13.2367 423.891 12.4424 423.891H9.72266V431H10.958ZM12.4424 427.367H10.958V424.887H12.4766C12.8867 424.893 13.209 425.012 13.4434 425.243C13.6777 425.471 13.7949 425.777 13.7949 426.161C13.7949 426.552 13.6794 426.851 13.4482 427.06C13.2171 427.265 12.8818 427.367 12.4424 427.367ZM18.2871 426.762C18.4531 426.762 18.6143 426.775 18.7705 426.801L18.7754 425.688C18.6647 425.642 18.5247 425.619 18.3555 425.619C17.8477 425.619 17.4505 425.849 17.1641 426.308L17.1348 425.717H16.002V431H17.1885V427.387C17.3773 426.97 17.7435 426.762 18.2871 426.762ZM21.749 431.098C20.9971 431.098 20.3867 430.862 19.918 430.39C19.4525 429.914 19.2197 429.283 19.2197 428.495V428.349C19.2197 427.821 19.3206 427.351 19.5225 426.938C19.7275 426.521 20.014 426.197 20.3818 425.966C20.7497 425.735 21.1598 425.619 21.6123 425.619C22.3317 425.619 22.8867 425.849 23.2773 426.308C23.6712 426.767 23.8682 427.416 23.8682 428.256V428.734H20.416C20.4518 429.171 20.5967 429.516 20.8506 429.77C21.1078 430.023 21.43 430.15 21.8174 430.15C22.361 430.15 22.8037 429.931 23.1455 429.491L23.7852 430.102C23.5736 430.417 23.2904 430.663 22.9355 430.839C22.584 431.011 22.1885 431.098 21.749 431.098ZM21.6074 426.571C21.2819 426.571 21.0182 426.685 20.8164 426.913C20.6178 427.141 20.4909 427.458 20.4355 427.865H22.6963V427.777C22.6703 427.38 22.5645 427.081 22.3789 426.879C22.1934 426.674 21.9362 426.571 21.6074 426.571ZM31.7002 431H30.5137V425.717H31.7002V431ZM30.4404 424.345C30.4404 424.162 30.4974 424.011 30.6113 423.891C30.7285 423.77 30.8945 423.71 31.1094 423.71C31.3242 423.71 31.4902 423.77 31.6074 423.891C31.7246 424.011 31.7832 424.162 31.7832 424.345C31.7832 424.524 31.7246 424.674 31.6074 424.794C31.4902 424.911 31.3242 424.97 31.1094 424.97C30.8945 424.97 30.7285 424.911 30.6113 424.794C30.4974 424.674 30.4404 424.524 30.4404 424.345ZM35.9043 429.892C35.709 430.064 35.4632 430.15 35.167 430.15C34.7764 430.15 34.4769 430.01 34.2686 429.73C34.0635 429.447 33.9609 429.019 33.9609 428.446V428.256C33.9642 427.689 34.07 427.268 34.2783 426.991C34.4867 426.711 34.7829 426.571 35.167 426.571C35.4665 426.571 35.7122 426.669 35.9043 426.864C36.0996 427.06 36.2038 427.309 36.2168 427.611H37.335C37.3154 427.016 37.1071 426.535 36.71 426.171C36.3161 425.803 35.805 425.619 35.1768 425.619C34.4346 425.619 33.8486 425.862 33.4189 426.347C32.9893 426.828 32.7744 427.471 32.7744 428.275V428.397C32.7744 429.241 32.9909 429.901 33.4238 430.38C33.8568 430.858 34.4427 431.098 35.1816 431.098C35.5625 431.098 35.9173 431.015 36.2461 430.849C36.5749 430.683 36.8353 430.458 37.0273 430.175C37.2194 429.888 37.3219 429.581 37.335 429.252H36.2168C36.2038 429.506 36.0996 429.719 35.9043 429.892ZM39.7178 424.433V425.717H40.6504V426.596H39.7178V429.545C39.7178 429.747 39.7568 429.893 39.835 429.984C39.9164 430.072 40.0596 430.116 40.2646 430.116C40.3056 430.116 40.3467 430.115 40.388 430.112C40.408 430.11 40.428 430.109 40.448 430.107C40.5247 430.099 40.602 430.085 40.6797 430.067V430.985C40.4095 431.06 40.1491 431.098 39.8984 431.098C38.987 431.098 38.5312 430.595 38.5312 429.589V426.596H37.6621V425.717H38.5312V424.433H39.7178ZM41.6367 431H42.8232V425.717H41.6367V431ZM41.7344 423.891C41.6205 424.011 41.5635 424.162 41.5635 424.345C41.5635 424.524 41.6205 424.674 41.7344 424.794C41.8516 424.911 42.0176 424.97 42.2324 424.97C42.4473 424.97 42.6133 424.911 42.7305 424.794C42.8477 424.674 42.9062 424.524 42.9062 424.345C42.9062 424.162 42.8477 424.011 42.7305 423.891C42.6133 423.77 42.4473 423.71 42.2324 423.71C42.0176 423.71 41.8516 423.77 41.7344 423.891ZM43.8975 428.31C43.8975 427.792 44 427.326 44.2051 426.913C44.4102 426.496 44.6982 426.177 45.0693 425.956C45.4404 425.731 45.8669 425.619 46.3486 425.619C47.0615 425.619 47.6393 425.849 48.082 426.308C48.528 426.767 48.7689 427.375 48.8047 428.134L48.8096 428.412C48.8096 428.933 48.7086 429.398 48.5068 429.809C48.3083 430.219 48.0218 430.536 47.6475 430.761C47.2764 430.985 46.8467 431.098 46.3584 431.098C45.6129 431.098 45.0156 430.85 44.5664 430.355C44.1205 429.857 43.8975 429.195 43.8975 428.368V428.31ZM45.084 428.412C45.084 428.956 45.1963 429.382 45.4209 429.691C45.6455 429.997 45.958 430.15 46.3584 430.15C46.7588 430.15 47.0697 429.994 47.291 429.682C47.5156 429.369 47.6279 428.912 47.6279 428.31C47.6279 427.776 47.5124 427.353 47.2812 427.04C47.0534 426.728 46.7425 426.571 46.3486 426.571C45.9613 426.571 45.6537 426.726 45.4258 427.035C45.1979 427.341 45.084 427.8 45.084 428.412ZM50.9482 426.327L50.9141 425.717H49.7959V431H50.9824V427.24C51.2168 426.807 51.5732 426.591 52.0518 426.591C52.3805 426.591 52.6165 426.672 52.7598 426.835C52.9062 426.994 52.9795 427.242 52.9795 427.577V431H54.166V427.509C54.1465 426.249 53.5866 425.619 52.4863 425.619C51.8516 425.619 51.3389 425.855 50.9482 426.327ZM59.1318 431H57.9453V423.5H59.1318V431ZM63.4482 430.507C63.4873 430.735 63.5329 430.899 63.585 431H64.7959V430.917C64.6624 430.634 64.5957 430.255 64.5957 429.779V427.396C64.5859 426.833 64.3971 426.397 64.0293 426.088C63.6615 425.775 63.1683 425.619 62.5498 425.619C62.1429 425.619 61.7734 425.691 61.4414 425.834C61.1126 425.977 60.8522 426.176 60.6602 426.43C60.4681 426.68 60.3721 426.951 60.3721 427.24H61.5586C61.5586 427.032 61.6449 426.861 61.8174 426.728C61.9899 426.591 62.2113 426.522 62.4814 426.522C62.7939 426.522 63.0267 426.605 63.1797 426.771C63.3327 426.934 63.4092 427.152 63.4092 427.426V427.772H62.6816C61.9037 427.772 61.3047 427.924 60.8848 428.227C60.4681 428.526 60.2598 428.957 60.2598 429.521C60.2598 429.966 60.4274 430.341 60.7627 430.644C61.098 430.946 61.5309 431.098 62.0615 431.098C62.6084 431.098 63.0706 430.901 63.4482 430.507ZM62.9404 429.975C62.7354 430.089 62.5156 430.146 62.2812 430.146C62.0273 430.146 61.8239 430.079 61.6709 429.945C61.5211 429.809 61.4463 429.626 61.4463 429.398C61.4463 429.118 61.557 428.902 61.7783 428.749C61.9997 428.596 62.3301 428.52 62.7695 428.52H63.4092V429.516C63.305 429.708 63.1488 429.861 62.9404 429.975ZM70.4746 428.412C70.4746 429.232 70.2907 429.885 69.9229 430.37C69.5583 430.855 69.0553 431.098 68.4141 431.098C67.7956 431.098 67.3138 430.875 66.9688 430.429L66.9102 431H65.8359V423.5H67.0225V426.225C67.3643 425.821 67.8249 425.619 68.4043 425.619C69.0488 425.619 69.555 425.858 69.9229 426.337C70.2907 426.815 70.4746 427.484 70.4746 428.344V428.412ZM69.2881 428.31C69.2881 427.737 69.1872 427.307 68.9854 427.021C68.7835 426.734 68.4906 426.591 68.1064 426.591C67.5921 426.591 67.2308 426.815 67.0225 427.265V429.442C67.234 429.901 67.5986 430.131 68.1162 430.131C68.4873 430.131 68.7738 429.992 68.9756 429.716C69.1774 429.439 69.2816 429.021 69.2881 428.461V428.31ZM71.9688 430.39C72.4375 430.862 73.0479 431.098 73.7998 431.098C74.2393 431.098 74.6348 431.011 74.9863 430.839C75.3412 430.663 75.6244 430.417 75.8359 430.102L75.1963 429.491C74.8545 429.931 74.4118 430.15 73.8682 430.15C73.4808 430.15 73.1585 430.023 72.9014 429.77C72.6475 429.516 72.5026 429.171 72.4668 428.734H75.9189V428.256C75.9189 427.416 75.722 426.767 75.3281 426.308C74.9375 425.849 74.3825 425.619 73.6631 425.619C73.2106 425.619 72.8004 425.735 72.4326 425.966C72.0648 426.197 71.7783 426.521 71.5732 426.938C71.3714 427.351 71.2705 427.821 71.2705 428.349V428.495C71.2705 429.283 71.5033 429.914 71.9688 430.39ZM72.8672 426.913C73.069 426.685 73.3327 426.571 73.6582 426.571C73.987 426.571 74.2441 426.674 74.4297 426.879C74.6152 427.081 74.721 427.38 74.7471 427.777V427.865H72.4863C72.5417 427.458 72.6686 427.141 72.8672 426.913ZM78.1064 431H76.9199V423.5H78.1064V431ZM325.112 596.61C328.487 599.694 332.193 602.345 336.16 604.614C344.848 609.581 355.079 614.099 364.766 610.14C364.759 610.025 364.77 609.907 364.813 609.79C361.069 609.778 357.405 607.257 354.541 604.96C352.628 603.424 350.732 601.821 348.83 600.211C347.662 599.223 346.492 598.233 345.314 597.255C345.26 599.217 345.282 601.194 345.888 603.063C346.153 603.881 346.577 604.615 346.999 605.345C347.481 606.18 347.961 607.01 348.197 607.957C348.227 608.079 348.139 608.21 348.008 608.207C342.714 608.069 342.43 598.909 342.601 595.051C340.774 593.597 338.922 592.195 337.013 590.906C335.437 589.842 333.784 589.011 332.085 588.387C332.091 588.634 332.095 588.881 332.099 589.128C332.119 590.471 332.139 591.816 332.609 593.166C333.36 595.32 334.707 597.479 336.068 599.307C336.319 599.644 335.844 600.054 335.517 599.859C333.082 598.41 331.532 596.502 330.618 593.715C330.017 591.879 329.461 589.663 329.769 587.673C326.124 586.753 322.319 586.724 318.597 587.411C318.529 587.8 318.534 588.211 318.587 588.657C319.34 589.566 320.046 590.516 320.753 591.467C322.093 593.27 323.435 595.077 325.112 596.61ZM356.935 598.035C354.856 594.298 352.756 590.524 349.204 587.691C344.054 583.585 337.366 580.62 330.635 581.429C328.242 581.716 325.778 582.231 323.523 583.184C325.559 583.164 327.599 583.354 329.614 583.829C331.584 584.293 333.371 585.003 335.043 585.876C336.726 585.6 338.42 585.588 340.118 585.809C340.209 585.82 340.301 585.832 340.393 585.844C341.529 585.986 342.676 586.13 343.455 587.043C343.507 587.104 343.5 587.192 343.429 587.237C342.306 587.963 340.771 587.83 339.284 587.702C338.828 587.662 338.376 587.623 337.942 587.61C340.069 589.05 342.047 590.735 344.032 592.486C345.321 592.065 346.589 591.676 348.014 591.801C348.129 591.811 348.251 591.819 348.377 591.827C348.984 591.866 349.683 591.911 350.184 592.205C350.416 592.341 350.591 592.564 350.764 592.784C350.954 593.026 351.142 593.265 351.399 593.381C351.522 593.437 351.429 593.612 351.311 593.588C351.063 593.54 350.69 593.687 350.365 593.814C350.211 593.875 350.069 593.93 349.955 593.96C349.578 594.055 349.1 593.974 348.657 593.9C348.427 593.861 348.206 593.824 348.014 593.814C347.805 593.803 347.593 593.79 347.379 593.778C346.732 593.739 346.066 593.7 345.405 593.704C345.885 594.131 346.365 594.558 346.854 594.987C347.404 595.469 347.946 595.949 348.483 596.423C353.18 600.577 357.479 604.379 363.019 606.833C360.431 604.319 358.691 601.19 356.935 598.035ZM328.208 651.015C325.817 644.026 322.687 637.288 318.818 630.989C314.617 624.152 309.55 617.953 303.637 612.519C300.837 609.944 297.807 607.697 294.783 605.453C293.711 604.659 292.641 603.865 291.581 603.057C269.082 593.284 244.874 591.518 220.651 589.751C211.202 589.062 201.752 588.373 192.4 587.208C191.323 587.074 190.211 586.944 189.073 586.811C181.67 585.945 173.156 584.949 166.033 581.883C166.108 582.107 166.181 582.331 166.253 582.555C166.314 582.743 166.374 582.931 166.436 583.118C167.811 584.669 168.734 586.559 169.665 588.463C170.185 589.527 170.708 590.595 171.312 591.612C174.253 596.549 177.797 600.731 182.174 604.446C182.965 605.116 183.757 605.784 184.55 606.452C190.984 611.874 197.418 617.297 202.527 624.061C207.98 631.282 212.464 639.708 213.39 648.858C214.06 655.474 213.534 664.099 209.949 670.269C210.832 670.082 211.713 669.858 212.599 669.633C215.434 668.912 218.32 668.178 221.502 668.604C223.186 668.831 224.633 669.65 226.08 670.47C226.793 670.874 227.506 671.278 228.248 671.611C232.414 673.483 237.059 672.872 241.359 671.784C242.114 671.593 242.853 671.362 243.589 671.118C243.392 668.514 243.447 665.889 243.502 663.258C243.57 660.021 243.637 656.775 243.236 653.542C242.474 647.395 241.223 641.26 239.128 635.419C236.855 629.078 234.007 622.953 230.715 617.078C229.248 614.461 227.363 612.278 225.473 610.089C224.176 608.587 222.876 607.083 221.708 605.433C221.621 605.31 221.785 605.203 221.893 605.25C226.939 607.391 230.873 612.937 233.735 617.495C237.095 622.845 239.858 628.665 241.849 634.669C245.241 644.893 248.713 658.989 246.32 670.118C247.797 669.521 249.251 668.864 250.703 668.208C254.061 666.691 257.407 665.179 260.997 664.427C262.482 664.116 264.241 664.607 265.999 665.099C268.307 665.744 270.612 666.388 272.288 665.214C273.419 664.422 274.269 663.463 275.105 662.52C276.154 661.337 277.182 660.179 278.715 659.404C286.725 655.354 296.708 657.583 303.726 662.72C306.145 658.729 309.333 654.746 314.221 654.258C318.886 653.793 322.517 656.008 324.645 660.171C326.732 664.255 328.995 667.429 332.179 669.615C331.542 667.105 331.104 664.52 330.665 661.926C330.041 658.242 329.414 654.54 328.208 651.015ZM152.178 552.778C151.33 557.234 152.254 561.657 155.177 567.077C159.278 574.682 165.005 578.592 173.362 580.527C188.418 584.012 203.82 585 219.199 585.953C233.579 586.844 247.948 587.913 262.124 590.61C263.383 590.85 264.681 591.084 266.005 591.324C275.825 593.101 287.095 595.139 294.899 601.325C294.761 600.876 294.625 600.429 294.489 599.981C293.527 596.815 292.575 593.682 290.896 590.694C290.567 590.107 290.232 589.491 289.888 588.859C287.731 584.889 285.225 580.279 281.469 578.077C281.391 578.03 281.445 577.89 281.534 577.926C285.771 579.636 289.642 583.878 292.614 588.787C289.355 580.676 283.751 573.782 274.787 570.856C260.292 566.127 244.626 564.225 229.538 562.507C227.641 562.29 225.741 562.079 223.84 561.867C211.258 560.464 198.632 559.056 186.256 556.386C178.723 554.761 171.243 552.819 164.039 550.062C160.99 548.895 158.374 547.323 156.591 544.809C153.303 550.564 154.556 559.537 156.98 565.289C157.028 565.404 156.852 565.462 156.791 565.369C154.463 561.856 152.553 557.293 152.178 552.778ZM123.03 592.661C128.023 587.97 131.855 583.036 135.873 577.528C136.627 576.494 137.36 575.551 138.173 574.768C136.121 575.153 134.095 575.64 132.122 576.261C129.817 576.987 127.662 577.94 125.598 579.042C125.702 580.927 125.183 583.056 124.357 584.621C123.23 586.751 122.05 587.731 120.07 589.059C119.958 589.134 119.858 588.955 119.966 588.88C122.297 587.253 122.475 584.598 122.651 581.981C122.68 581.548 122.709 581.117 122.747 580.691C120.564 582.067 118.486 583.617 116.463 585.279C116.223 589.472 113.735 594.928 110.333 597.039C109.804 597.368 109.406 596.801 109.472 596.368C109.469 596.368 109.464 596.368 109.461 596.37C109.466 596.359 109.472 596.349 109.476 596.34C109.49 596.266 109.521 596.203 109.565 596.146C109.968 595.172 110.486 594.253 111.005 593.334C111.609 592.262 112.215 591.188 112.641 590.022C112.878 589.372 113.061 588.712 113.233 588.05C112.112 589.062 110.915 590.212 109.652 591.425C104.712 596.171 98.7675 601.882 92.4666 604.044C96.7051 603.799 101.345 602.687 104.325 601.974L104.687 601.887C111.551 600.245 117.822 597.551 123.03 592.661ZM125.482 570.404C117.754 570.754 109.327 574.571 103.7 579.959C100.566 582.961 98.7223 587.113 96.8911 591.237C95.2257 594.988 93.5706 598.715 90.964 601.534C97.9526 598.72 103.452 593.639 109.015 588.499C110.505 587.122 112 585.741 113.529 584.398C113.175 584.368 112.816 584.32 112.459 584.273C111.877 584.195 111.302 584.118 110.764 584.12C109.923 584.123 109.057 584.215 108.186 584.307C106.729 584.462 105.261 584.617 103.88 584.359C103.789 584.343 103.762 584.212 103.825 584.152C105.565 582.516 108.463 582.206 110.764 582.082C110.974 582.07 111.195 582.054 111.425 582.038C112.839 581.935 114.553 581.811 115.663 582.581C116.671 581.747 117.691 580.929 118.749 580.154C120.418 578.929 122.149 577.862 123.919 576.904C123.819 576.863 123.72 576.823 123.622 576.783C123.466 576.719 123.313 576.656 123.165 576.593L123.02 576.532C121.027 575.697 118.928 574.818 116.735 574.957C116.602 574.966 116.605 574.763 116.735 574.751C117.398 574.691 118.036 574.606 118.665 574.523C120.254 574.311 121.781 574.109 123.472 574.327C124.632 574.479 126.131 574.721 127.354 575.213C129.414 574.311 131.529 573.57 133.68 572.953C133.18 572.744 132.678 572.521 132.174 572.298C129.935 571.307 127.672 570.304 125.482 570.404ZM165.363 500.836C162.909 507.826 160.453 514.895 159.115 522.203C158.352 526.373 157.716 530.613 157.71 534.864C157.709 535.604 157.734 536.326 157.758 537.038C157.82 538.811 157.879 540.513 157.522 542.232C161.816 547.723 170.975 549.762 178.017 551.33C178.985 551.545 179.913 551.752 180.783 551.957C188.485 553.775 196.266 555.194 204.107 556.269C211.512 557.284 218.943 558.096 226.377 558.894C226.235 558.539 226.107 558.171 225.979 557.802C225.837 557.393 225.695 556.983 225.532 556.588C224.146 553.204 223.379 550.137 222.745 546.576C222.723 546.448 222.912 546.342 222.972 546.481C223.394 547.427 223.846 548.353 224.298 549.281C224.927 550.57 225.556 551.86 226.106 553.207C227.028 555.462 228.066 557.281 229.333 559.213C232.207 559.521 235.082 559.834 237.956 560.155C233.211 554.866 230.066 547.766 228.306 541.111C226.668 534.912 226.204 528.866 225.733 522.735C225.492 519.602 225.25 516.448 224.849 513.239C224.264 508.559 222.885 503.871 220.879 499.333C220.641 500.744 220.37 502.146 220.1 503.547C219.321 507.589 218.544 511.623 218.539 515.863C218.534 520.065 218.926 524.234 219.318 528.403C219.565 531.03 219.812 533.656 219.959 536.291C219.965 536.402 219.81 536.408 219.776 536.315C215.489 524.924 212.416 506.526 218.943 495.361C211.415 481.223 198.003 469.083 184.039 464.068C183.248 465.234 182.448 466.381 181.652 467.523C178.757 471.677 175.906 475.767 173.664 480.426C170.475 487.047 167.796 493.902 165.363 500.836ZM150.826 468.945L150.842 468.981L151.196 469.795C155.272 479.174 160.032 490.126 161.474 500.72C161.578 500.428 161.676 500.137 161.781 499.847C162.137 498.863 162.496 497.863 162.86 496.85C163.872 494.028 164.92 491.107 166.047 488.178C165.345 473.024 154.37 458.862 141.043 451.572C145.447 456.562 148.422 463.41 150.826 468.945ZM117.956 474.938C122.427 472.286 126.779 469.314 130.417 465.566C131.963 463.971 133.252 462.154 134.536 460.345C135.606 458.836 136.673 457.332 137.88 455.97C132.671 454.161 126.869 454.23 122.019 457.213C117.234 460.156 113.632 464.174 109.95 468.282C109.488 468.798 109.025 469.314 108.558 469.831C104.593 474.214 99.7738 478.849 94.4681 479.559C102.312 481.336 111.14 478.979 117.956 474.938ZM98.683 469.347C97.1157 472.732 94.5117 477.042 90.3404 477.46C89.8656 477.508 89.4148 477.52 88.9805 477.508C89.1529 477.603 89.3297 477.686 89.5064 477.769C89.6008 477.813 89.6953 477.858 89.7889 477.904C96.955 478.565 103.37 471.128 109.208 464.361C112.503 460.541 115.614 456.935 118.572 455.119C121.996 453.016 125.478 451.593 129.254 451.174C128.678 451.079 128.077 451.016 127.434 451C122.633 450.884 117.586 450.875 113.012 452.541C108.8 454.076 104.45 456.6 102.286 460.729C101.46 462.307 100.834 463.953 100.208 465.6C99.7297 466.859 99.2512 468.118 98.683 469.347ZM205.369 451.849C200.389 449.439 194.547 447.398 189.492 451.061C185.772 453.76 184.46 457.124 183.653 461.192C192.957 461.367 201.72 469.692 207.653 476.049C214.613 483.502 220.571 491.891 224.726 501.233C226.727 505.732 227.531 510.271 227.968 514.867C229.192 514.321 230.565 513.942 231.949 513.56C233.831 513.042 235.732 512.517 237.305 511.559C243.451 507.813 243.659 501.296 242.126 494.887C239.884 485.511 235.098 476.626 228.679 469.42C222.076 462.01 214.306 456.174 205.369 451.849ZM218.919 418.792C214.372 425.515 209.702 432.149 204.962 438.737C204.652 439.167 204.236 439.86 203.744 440.679C202.795 442.258 201.563 444.309 200.261 445.864C205.364 446.814 210.796 450.212 214.843 452.789C219.86 455.985 224.664 459.614 228.76 463.953C231.151 466.484 233.486 469.247 235.647 472.183C236.447 470.598 237.263 469.009 238.083 467.413C243.001 457.839 248.036 448.037 250.339 437.605C253.241 424.458 248.964 410.256 242.196 398.892C239.825 394.909 237.076 391.309 234.198 387.752C233.509 397.562 226.229 408.149 220.75 416.115C220.111 417.045 219.496 417.939 218.919 418.792ZM230.194 372.705C230.891 373.502 230.724 374.39 230.182 374.921C230.5 376.394 231.137 377.893 232.159 379.386C233.562 381.434 235.174 383.317 236.786 385.2C238.293 386.961 239.801 388.723 241.14 390.622C246.746 398.573 251.28 407.61 253.392 417.165C254.5 422.165 254.745 427.232 254.329 432.284C262.217 431.301 270.142 426.197 272.537 418.249C275.307 409.054 272.274 399.801 268.414 391.396C268.143 390.807 267.872 390.214 267.601 389.62C264.549 382.948 261.389 376.042 257.104 370.112C254.39 366.356 250.731 361.884 246.096 360.51C244.101 359.917 242.313 360.024 240.478 360.133C240.27 360.146 240.061 360.158 239.851 360.17C234.359 362.332 230.078 367.063 229.964 372.469C229.999 372.509 230.037 372.546 230.075 372.583C230.116 372.623 230.156 372.662 230.194 372.705ZM176.828 393.756C182.081 393.484 187.437 392.387 192.114 389.875C201.116 385.04 206.333 377.761 210.705 369.025C201.184 369.211 191.703 374.321 184.26 381.475C184.13 381.6 183.926 381.803 183.658 382.07C181.522 384.19 175.334 390.336 170.304 393.193L170.474 393.219C172.576 393.543 174.683 393.868 176.828 393.756ZM191.697 364.501C185.282 366.908 178.214 371.313 174.852 377.532C174.393 378.382 173.89 379.856 173.303 381.578C172.206 384.791 170.814 388.871 168.857 391.387C172.792 389.869 175.79 386.529 178.756 383.226C179.914 381.936 181.067 380.652 182.269 379.484C187.309 374.584 192.538 370.469 199.053 367.711C202.125 366.41 205.572 365.577 209.088 365.301C203.56 362.936 197.812 362.207 191.697 364.501ZM168.295 420.868C162.63 421.203 155.98 421.597 151.184 425.032C146.254 428.565 143.197 434.899 146.26 439.891C147.623 435.792 150.057 431.99 152.857 429.632C156.957 426.178 161.652 424.216 166.836 422.929C167.789 422.692 168.78 422.474 169.787 422.253C172.097 421.745 174.487 421.219 176.681 420.408C174.511 420.675 172.31 420.734 170.547 420.782C169.762 420.803 169.064 420.822 168.493 420.856L168.295 420.868ZM149.456 442.51C157.438 442.464 167.602 441.509 173.993 436.7C179.62 432.465 182.422 426.259 183.704 419.649C180.542 422.554 175.231 423.911 170.905 425.017C169.726 425.318 168.621 425.6 167.652 425.891C161.156 427.834 154.726 430.583 151.398 436.934C150.387 438.865 149.81 440.693 149.456 442.51ZM143.281 163.033C147.27 166.832 151.775 168.253 157.213 168.363C164.349 168.507 170.578 166.911 177.09 165.243C178.709 164.828 180.347 164.409 182.02 164.011C178.126 160.102 173.115 157.421 167.366 157.188C164.798 157.085 161.471 157.713 157.903 158.386C151.741 159.55 144.86 160.849 139.925 158.747C140.139 159.045 140.351 159.347 140.563 159.65C141.391 160.835 142.228 162.031 143.281 163.033ZM178.244 154.541C172.606 151.176 164.806 149.381 158.278 150.967C156.457 151.41 154.259 152.484 151.905 153.635C149.483 154.819 146.896 156.083 144.385 156.823C146.232 157.02 148.124 157.005 150.179 156.596C151.529 156.327 152.872 156.036 154.215 155.746C157.11 155.119 160.001 154.493 162.942 154.091C168.792 153.29 175.467 154.657 180.358 158.062C181.367 158.765 182.337 159.57 183.277 160.425C182.164 158.12 180.726 156.022 178.244 154.541ZM247.601 77.7224C243.134 76.9963 238.949 70.7694 236.915 66.6983C232.897 58.6629 223.381 51.8527 213.934 54.1348C211.029 54.8353 208.891 56.0305 207.083 57.5128C207.125 57.504 207.167 57.4951 207.208 57.4861C207.416 57.4417 207.625 57.397 207.838 57.367C213.25 56.6108 222.042 57.155 226.106 61.399C227.416 62.767 228.78 64.4989 230.222 66.3311C234.643 71.9487 239.806 78.5081 246.45 78.4049C246.841 78.1915 247.224 77.9644 247.601 77.7224ZM211.797 73.05C217.265 78.0832 227.656 81.1185 235.059 81.108C237.459 81.105 239.728 80.8208 241.857 80.2451C236.118 77.7014 229.898 70.6687 227.791 68.0423C224.117 63.4616 220.661 61.0291 214.679 60.5616C210.503 60.2369 207.56 60.4879 203.994 63.1218C203.216 63.6961 202.559 64.2944 201.958 64.9048C205.274 65.4755 207.084 67.6604 209.014 69.9907C209.871 71.0246 210.751 72.0871 211.797 73.05ZM345.287 367.872C340.938 360.322 336.418 352.507 326.983 351.139C323.236 350.596 320.098 350.971 317.188 351.932C323.108 351.981 330.056 354.286 333.894 358.51C335.281 360.038 336.721 361.942 338.242 363.952C342.841 370.033 348.18 377.091 355.052 377.69C350.193 376.427 348.059 372.705 345.671 368.541C345.544 368.319 345.416 368.096 345.287 367.872ZM320.203 369.201C325.168 374.408 331.467 378.506 338.628 379.877C342.658 380.649 348.041 381.337 352.017 379.801C352.056 379.786 352.091 379.768 352.125 379.751C352.157 379.736 352.188 379.721 352.221 379.708C349.183 379.467 346.149 377.603 343.903 375.197C342.399 373.588 340.917 371.708 339.391 369.774C335.273 364.551 330.845 358.937 324.877 357.208C319.437 355.633 314.292 355.753 309.494 357.33C312.793 359.672 316.204 364.104 318.374 366.923C319.177 367.965 319.809 368.787 320.203 369.201ZM299.802 522.898C296.252 514.99 289.885 508.341 282.435 503.922C277.754 501.146 272.68 499.839 267.217 500.544C266.351 500.657 265.49 500.836 264.629 501.036C267.758 501.517 270.794 502.506 273.543 504.043C276.992 505.971 279.561 508.511 282.197 511.115C283.512 512.414 284.843 513.729 286.307 514.993C288.932 517.26 291.778 519.336 294.911 520.858C295.901 521.338 296.919 521.739 297.933 522.139C298.56 522.386 299.186 522.633 299.802 522.898ZM264.226 511.2C265.997 513.649 267.721 516.032 269.625 517.529C276.809 523.179 287.051 525.534 296.363 524.975C290.178 522.849 284.358 517.377 280.387 513.214C273.92 506.434 266.135 503.462 258.048 504.08C260.353 505.846 262.317 508.562 264.226 511.2Z" fill="#7DC720"/>
</svg>
